<svg width="187" height="46" viewBox="0 0 187 46" fill="none" xmlns="http://www.w3.org/2000/svg">
<path fill-rule="evenodd" clip-rule="evenodd" d="M36.5601 4.57001H29.7051V0H25.1351V4.57001H15.995V0H11.425V4.57001H4.57001C2.04965 4.57001 0 6.61966 0 9.14002V41.1301C0 43.6505 2.04965 45.7001 4.57001 45.7001H36.5601C39.0804 45.7001 41.1301 43.6505 41.1301 41.1301V9.14002C41.1301 6.61966 39.0804 4.57001 36.5601 4.57001ZM4.57001 41.1301V11.425H36.5601V9.14002L36.5647 41.1301H4.57001ZM9.14002 15.995H31.9901V20.5651H9.14002V15.995ZM9.14002 25.1351H20.565V29.7051H9.14002V25.1351ZM59.7136 26.0452C59.8207 26.3219 59.8743 26.6343 59.8743 26.9824C59.8743 27.4198 59.7627 27.8125 59.5396 28.1606C59.3253 28.5087 58.9906 28.781 58.5354 28.9773C58.0891 29.1737 57.5179 29.2719 56.8217 29.2719C56.2504 29.2719 55.7238 29.2139 55.2418 29.0978C54.7687 28.9818 54.3581 28.7944 54.01 28.5355C53.6708 28.2767 53.4075 27.9375 53.2201 27.518C53.0327 27.0985 52.9389 26.5852 52.9389 25.9783H48.9089C48.9089 27.0761 49.1365 28.0267 49.5918 28.8301C50.047 29.6334 50.6539 30.2939 51.4126 30.8116C52.1802 31.3293 53.0327 31.7176 53.9699 31.9764C54.9071 32.2263 55.8577 32.3513 56.8217 32.3513C57.8928 32.3513 58.8612 32.2308 59.727 31.9898C60.5928 31.7488 61.3381 31.3962 61.9629 30.9321C62.5877 30.468 63.0653 29.9012 63.3955 29.2317C63.7258 28.5623 63.8909 27.8036 63.8909 26.9556C63.8909 26.1523 63.7525 25.4338 63.4758 24.8001C63.1991 24.1663 62.7886 23.5995 62.2441 23.0997C61.6996 22.5999 61.0212 22.1491 60.209 21.7474C59.4057 21.3458 58.4729 20.9843 57.4108 20.663C56.777 20.4666 56.2192 20.2658 55.7372 20.0605C55.2552 19.8552 54.8491 19.6365 54.5188 19.4044C54.1885 19.1724 53.9386 18.9224 53.769 18.6547C53.6084 18.3869 53.528 18.0879 53.528 17.7576C53.528 17.3202 53.6441 16.9275 53.8761 16.5794C54.1082 16.2224 54.4563 15.9412 54.9205 15.7359C55.3846 15.5217 55.9648 15.4146 56.661 15.4146C57.384 15.4146 57.982 15.5395 58.4551 15.7895C58.9371 16.0394 59.2941 16.383 59.5262 16.8204C59.7672 17.2488 59.8877 17.7487 59.8877 18.3199H63.8775C63.8775 17.1596 63.5785 16.1287 62.9805 15.2271C62.3914 14.3256 61.5613 13.616 60.4902 13.0983C59.4191 12.5806 58.165 12.3218 56.7279 12.3218C55.6747 12.3218 54.7062 12.4512 53.8226 12.7101C52.9479 12.9689 52.1892 13.3393 51.5465 13.8213C50.9038 14.2944 50.404 14.8657 50.047 15.5351C49.6899 16.1956 49.5114 16.932 49.5114 17.7442C49.5114 18.5832 49.681 19.3196 50.0202 19.9534C50.3683 20.5871 50.8414 21.145 51.4394 21.6269C52.0464 22.1 52.7426 22.5151 53.528 22.8721C54.3224 23.2291 55.1615 23.5505 56.0451 23.8361C56.8395 24.086 57.4866 24.327 57.9865 24.5591C58.4863 24.7911 58.8746 25.0277 59.1513 25.2687C59.428 25.5007 59.6154 25.7596 59.7136 26.0452ZM73.6245 29.0711C73.2585 29.2496 72.839 29.3388 72.3659 29.3388C71.7947 29.3388 71.3305 29.2228 70.9735 28.9907C70.6165 28.7587 70.3353 28.4418 70.13 28.0401C69.9337 27.6385 69.7998 27.1788 69.7284 26.6611C69.657 26.1434 69.6213 25.6034 69.6213 25.0411V24.6528C69.6213 24.0905 69.657 23.5549 69.7284 23.0461C69.8087 22.5285 69.9471 22.0688 70.1434 21.6671C70.3398 21.2565 70.6165 20.9352 70.9735 20.7031C71.3305 20.4621 71.7902 20.3416 72.3526 20.3416C72.8792 20.3416 73.321 20.4621 73.678 20.7031C74.044 20.9352 74.3207 21.2476 74.5081 21.6403C74.7045 22.0331 74.8071 22.4704 74.8161 22.9524H78.4444C78.4355 21.801 78.1722 20.8058 77.6545 19.9667C77.1457 19.1188 76.4406 18.4672 75.5391 18.012C74.6465 17.5568 73.6066 17.3292 72.4195 17.3292C71.3038 17.3292 70.3309 17.5166 69.5008 17.8915C68.6707 18.2664 67.9789 18.7885 67.4255 19.458C66.8721 20.1185 66.4571 20.895 66.1804 21.7876C65.9037 22.6713 65.7653 23.6263 65.7653 24.6528V25.0411C65.7653 26.0586 65.9037 27.0137 66.1804 27.9062C66.4571 28.7899 66.8721 29.5664 67.4255 30.2359C67.9789 30.8964 68.6707 31.4141 69.5008 31.789C70.3398 32.1639 71.3216 32.3513 72.4463 32.3513C73.562 32.3513 74.5706 32.1282 75.4721 31.6819C76.3736 31.2266 77.0922 30.6063 77.6277 29.8208C78.1632 29.0264 78.4355 28.1205 78.4444 27.1029H74.8161C74.8071 27.5581 74.6956 27.9553 74.4814 28.2945C74.2761 28.6248 73.9904 28.8836 73.6245 29.0711ZM84.5363 22.5284V32.0835H80.6803V17.5969H84.3087L84.4365 19.372C84.4732 19.3058 84.511 19.2407 84.5497 19.1768C84.9156 18.5877 85.3619 18.1325 85.8885 17.8112C86.4152 17.4898 87.0176 17.3292 87.696 17.3292C87.9102 17.3292 88.1289 17.347 88.352 17.3827C88.5752 17.4095 88.7582 17.4497 88.901 17.5032L88.834 21.078C88.6466 21.0512 88.419 21.0289 88.1512 21.0111C87.8924 20.9843 87.6558 20.9709 87.4416 20.9709C86.8971 20.9709 86.4241 21.0423 86.0224 21.1851C85.6297 21.319 85.2994 21.5198 85.0317 21.7876C84.8278 21.9985 84.6626 22.2455 84.5363 22.5284ZM99.4194 30.578C98.9899 31.1153 98.4605 31.5413 97.8313 31.8559C97.1529 32.1862 96.354 32.3513 95.4347 32.3513C94.7295 32.3513 94.078 32.2531 93.4799 32.0567C92.8908 31.8515 92.382 31.5346 91.9536 31.1061C91.5341 30.6688 91.2038 30.1109 90.9629 29.4326C90.7308 28.7453 90.6147 27.9196 90.6147 26.9556V17.5969H94.4707V26.9824C94.4707 27.4109 94.5198 27.7724 94.618 28.0669C94.7251 28.3615 94.8724 28.6025 95.0598 28.7899C95.2472 28.9773 95.4659 29.1112 95.7158 29.1916C95.9747 29.2719 96.2603 29.3121 96.5727 29.3121C97.3671 29.3121 97.9919 29.1514 98.4471 28.8301C98.8154 28.5751 99.0966 28.2471 99.2906 27.8461V17.5969H103.147V32.0835H99.5182L99.4194 30.578ZM109.948 21.8087V32.0835H106.079V17.5969H109.707L109.84 19.2556C110.313 18.6549 110.889 18.1868 111.568 17.8513C112.273 17.5032 113.09 17.3292 114.018 17.3292C114.661 17.3292 115.25 17.4274 115.786 17.6237C116.321 17.8112 116.781 18.1102 117.165 18.5208C117.443 18.8051 117.676 19.152 117.864 19.5615C117.928 19.4669 117.993 19.3743 118.062 19.2839C118.535 18.668 119.119 18.1905 119.816 17.8513C120.512 17.5032 121.315 17.3292 122.225 17.3292C122.922 17.3292 123.555 17.4318 124.127 17.6371C124.698 17.8335 125.184 18.1503 125.586 18.5877C125.997 19.0161 126.309 19.5785 126.523 20.2747C126.746 20.9709 126.858 21.8233 126.858 22.8319V32.0835H122.989V22.8319C122.989 22.1625 122.899 21.6537 122.721 21.3056C122.551 20.9486 122.301 20.7031 121.971 20.5692C121.65 20.4264 121.266 20.355 120.82 20.355C120.356 20.355 119.949 20.4487 119.601 20.6362C119.253 20.8147 118.963 21.0646 118.731 21.3859C118.597 21.5708 118.483 21.7734 118.388 21.9938C118.394 22.1315 118.396 22.2725 118.396 22.4169V32.0835H114.54V22.8453C114.54 22.1848 114.451 21.676 114.273 21.319C114.094 20.962 113.84 20.7121 113.509 20.5692C113.188 20.4264 112.8 20.355 112.345 20.355C111.845 20.355 111.407 20.4577 111.033 20.663C110.667 20.8683 110.363 21.1539 110.122 21.5198C110.06 21.612 110.002 21.7082 109.948 21.8087ZM138.801 32.0835V15.7359H144.799V12.5896H138.801H134.797H128.893V15.7359H134.797V32.0835H138.801ZM152.785 30.7233C152.648 30.8819 152.498 31.0363 152.337 31.1865C151.962 31.5257 151.511 31.8068 150.984 32.03C150.458 32.2442 149.833 32.3513 149.11 32.3513C148.191 32.3513 147.356 32.1683 146.606 31.8024C145.865 31.4275 145.276 30.9142 144.839 30.2627C144.411 29.6021 144.196 28.8524 144.196 28.0134C144.196 27.2547 144.339 26.5808 144.625 25.9917C144.91 25.4026 145.33 24.9072 145.883 24.5055C146.446 24.0949 147.146 23.787 147.985 23.5817C148.824 23.3675 149.797 23.2604 150.904 23.2604H152.631V22.3633C152.631 21.8992 152.555 21.502 152.404 21.1717C152.252 20.8325 152.015 20.5692 151.694 20.3818C151.382 20.1944 150.975 20.1006 150.476 20.1006C150.047 20.1006 149.677 20.1765 149.364 20.3282C149.052 20.4711 148.811 20.6808 148.641 20.9575C148.472 21.2253 148.387 21.5422 148.387 21.9081H144.531C144.531 21.2922 144.674 20.7076 144.959 20.1542C145.245 19.6008 145.66 19.1143 146.205 18.6948C146.749 18.2664 147.396 17.9317 148.146 17.6907C148.905 17.4497 149.753 17.3292 150.69 17.3292C151.814 17.3292 152.814 17.5166 153.689 17.8915C154.564 18.2664 155.251 18.8287 155.751 19.5785C156.26 20.3282 156.514 21.2655 156.514 22.3901V28.5891C156.514 29.3835 156.563 30.0351 156.661 30.5438C156.759 31.0437 156.902 31.481 157.09 31.8559V32.0835H153.194C153.018 31.7161 152.882 31.2627 152.785 30.7233ZM152.631 27.9891C152.582 28.0806 152.524 28.1735 152.457 28.2677C152.225 28.6069 151.895 28.8925 151.466 29.1246C151.038 29.3567 150.534 29.4727 149.953 29.4727C149.57 29.4727 149.235 29.4013 148.949 29.2585C148.664 29.1068 148.445 28.9015 148.293 28.6426C148.142 28.3749 148.066 28.0758 148.066 27.7456C148.066 27.4153 148.119 27.1119 148.226 26.8352C148.342 26.5585 148.521 26.3175 148.762 26.1122C149.003 25.8979 149.311 25.7328 149.686 25.6168C150.061 25.5007 150.502 25.4427 151.011 25.4427H152.631V27.9891ZM167.078 27.3305C167.238 27.5537 167.319 27.8036 167.319 28.0803C167.319 28.3927 167.229 28.6694 167.051 28.9104C166.881 29.1425 166.631 29.3299 166.301 29.4727C165.971 29.6066 165.556 29.6736 165.056 29.6736C164.592 29.6736 164.159 29.6021 163.757 29.4593C163.364 29.3165 163.039 29.0845 162.78 28.7631C162.53 28.4418 162.396 28.0178 162.378 27.4912H158.723C158.723 28.2767 158.96 29.0443 159.433 29.7941C159.915 30.5349 160.62 31.1463 161.548 31.6283C162.485 32.1103 163.628 32.3513 164.976 32.3513C165.904 32.3513 166.738 32.2442 167.479 32.03C168.229 31.8068 168.872 31.4989 169.407 31.1061C169.943 30.7045 170.353 30.2359 170.639 29.7003C170.925 29.1648 171.067 28.5757 171.067 27.933C171.067 26.9869 170.826 26.2237 170.344 25.6436C169.862 25.0545 169.211 24.5903 168.39 24.2511C167.569 23.903 166.636 23.6219 165.591 23.4076C165.083 23.3095 164.654 23.2023 164.306 23.0863C163.967 22.9614 163.69 22.8275 163.476 22.6847C163.262 22.5418 163.106 22.3856 163.007 22.216C162.918 22.0375 162.874 21.8367 162.874 21.6136C162.874 21.319 162.954 21.0512 163.115 20.8102C163.284 20.5603 163.525 20.3639 163.838 20.2211C164.15 20.0694 164.52 19.9935 164.949 19.9935C165.467 19.9935 165.886 20.0828 166.207 20.2613C166.538 20.4309 166.779 20.6674 166.93 20.9709C167.091 21.2655 167.171 21.6002 167.171 21.9751H171.027C171.027 21.0825 170.782 20.2881 170.291 19.5919C169.809 18.8867 169.113 18.3333 168.202 17.9317C167.301 17.53 166.221 17.3292 164.962 17.3292C164.061 17.3292 163.248 17.4497 162.525 17.6907C161.811 17.9227 161.204 18.2485 160.705 18.668C160.214 19.0786 159.834 19.5517 159.567 20.0872C159.308 20.6228 159.178 21.194 159.178 21.801C159.178 22.4169 159.308 22.9658 159.567 23.4478C159.825 23.9209 160.182 24.3315 160.638 24.6796C161.102 25.0277 161.646 25.3267 162.271 25.5766C162.905 25.8176 163.588 26.0184 164.32 26.1791C165.132 26.3398 165.752 26.5183 166.181 26.7147C166.618 26.9021 166.917 27.1074 167.078 27.3305ZM177.427 22.937V11.5051H173.571V32.0835H177.427V27.6455L178.815 26.2406L182.555 32.0835H187L181.296 23.5975L186.558 17.5969H181.926L178.163 22.0018L177.427 22.937Z" fill="#FFFBFB"/>
</svg>
